<svg width="1280" height="720" viewBox="0 0 1280 720" fill="none" xmlns="http://www.w3.org/2000/svg">
  <rect width="1280" height="720" fill="#EEF2FF"/>
  <rect x="60" y="60" width="1160" height="72" rx="16" fill="#FFFFFF"/>
  <rect x="90" y="84" width="300" height="24" rx="8" fill="#DDD6FE"/>
  <rect x="60" y="170" width="560" height="220" rx="20" fill="#FFFFFF"/>
  <rect x="90" y="204" width="220" height="20" rx="8" fill="#C4B5FD"/>
  <rect x="90" y="244" width="500" height="12" rx="6" fill="#E2E8F0"/>
  <rect x="90" y="268" width="450" height="12" rx="6" fill="#E2E8F0"/>
  <rect x="90" y="292" width="420" height="12" rx="6" fill="#E2E8F0"/>
  <rect x="660" y="170" width="560" height="220" rx="20" fill="#FFFFFF"/>
  <rect x="690" y="204" width="280" height="20" rx="8" fill="#A78BFA"/>
  <rect x="690" y="250" width="500" height="22" rx="10" fill="#E9D5FF"/>
  <rect x="690" y="286" width="380" height="22" rx="10" fill="#F1F5F9"/>
  <rect x="60" y="430" width="1160" height="230" rx="20" fill="#FFFFFF"/>
  <rect x="90" y="462" width="190" height="20" rx="8" fill="#C4B5FD"/>
  <rect x="90" y="500" width="1080" height="16" rx="8" fill="#E2E8F0"/>
  <rect x="90" y="530" width="960" height="16" rx="8" fill="#E2E8F0"/>
  <rect x="90" y="560" width="1020" height="16" rx="8" fill="#E2E8F0"/>
</svg>
